<svg width="1920" height="2240" viewBox="0 0 1920 2240" fill="none" xmlns="http://www.w3.org/2000/svg">
<path d="M764 684L684.5 591.5L664 641.5L657.5 656.5L649.5 667.5L628 696L609.5 727.5L596.5 743.5L585 753.5L562.5 770.5L548 785L514 833.5L488 876L467.5 908.5L440 949.5L429.5 968.5L482 980L494 965.5L505 955L529 935L551.5 920.5L576.5 904L589.5 893.5L611 875.5L627 862L638.5 849.5L651.5 831L665.5 811L679 797.5L704 775L722.5 756L740 733L764 684Z" fill="#3B82F6" fill-opacity="0.5"/>
<path d="M1161 686.5L1236 591L1265.5 660L1286.5 683.5L1309.5 719.5L1322 741L1377.5 783.5L1386 798.5L1445 890.5L1492 964L1442.5 978L1417 953L1386 928L1349.5 905.5L1309.5 872.5L1280.5 844.5L1260 812.5L1199 755L1175.5 720.5L1161 686.5Z" fill="#3B82F6" fill-opacity="0.5"/>
</svg>
