<svg width="1920" height="2240" viewBox="0 0 1920 2240" fill="none" xmlns="http://www.w3.org/2000/svg">
<path d="M823 1213.5L793 1146L782.5 1190L769 1241.5L763.5 1295.5L765 1340.5L769 1386L779.5 1467.5L781 1497.5L897 1513V1496L902.5 1461.5L908.5 1437.5L926 1378L944 1291L950 1206.5L886 1226.5L823 1213.5Z" fill="#3B82F6" fill-opacity="0.5"/>
<path d="M1104 1213.5L1135 1146L1151 1213.5L1161 1284V1336.5L1157 1401.5L1146.5 1465.5V1496L1030 1516L1026.5 1496L1022 1461.5L1013.5 1422.5L999.5 1371.5L983.5 1301.5L973 1206.5L1041 1226.5L1104 1213.5Z" fill="#3B82F6" fill-opacity="0.5"/>
</svg>
