<svg width="1920" height="2240" viewBox="0 0 1920 2240" fill="none" xmlns="http://www.w3.org/2000/svg">
<path d="M815.5 1930C793.833 1928.5 750.3 1925.5 749.5 1925.5L747 1941.5L745.5 1945L737 1955L728 1960L716.5 1962.5L711 1968L703 1969L701 1972.5V1981L705.5 1984L704 1989L705.5 1994.5L714 2001.5L726 2009L734 2013L739 2018L750.5 2029.5L768.5 2038H789.5L799 2031L808.5 2020L809.5 2008V1969L813 1956.5L815.5 1945V1930Z" fill="#3B82F6" fill-opacity="0.5"/>
<path d="M1176.5 1935.5L1108.5 1939L1112 1958.5L1115 1966L1116 1972.5V2019.5L1117 2022.5L1126 2031.5L1133.5 2035.5L1153 2036.5L1167 2034L1176 2028.5L1185 2019.5L1192.5 2012.5L1203 2005.5L1213.5 1999L1219.5 1993.5V1985L1222.5 1982.5V1978.5L1220.5 1972.5L1218.5 1968.5L1212.5 1966L1208.5 1963.5H1205L1201 1961.5L1188.5 1955L1180.5 1948L1178 1942L1176.5 1935.5Z" fill="#3B82F6" fill-opacity="0.5"/>
</svg>
