<svg width="1920" height="2240" viewBox="0 0 1920 2240" fill="none" xmlns="http://www.w3.org/2000/svg">
<path d="M482 980L429 968.5L397.5 1026.5L393 1036V1046.5H392L390.5 1054L381.5 1074L379 1093L378 1123.5L381 1127.5L390 1126.5L399 1121L400 1112H405L410 1109L414 1099L417 1078.5L421.5 1070L425.5 1058.5L443 1037L455 1032.5L453 1042.5L454 1052.5L456.5 1058.5L461.5 1060.5C463.333 1060.67 467.1 1061 467.5 1061C467.9 1061 471.667 1059.33 473.5 1058.5L477 1051.5L477.5 1030L483.5 1016.5L485 1004L482.5 985.5L482 980Z" fill="#3B82F6" fill-opacity="0.5"/>
<path d="M1492.5 964L1441 978.5V984L1439 991.5V1007L1443 1019L1445 1030L1446 1043L1447.5 1053L1452 1058.5L1460.5 1060.5L1467.5 1057L1470 1047L1468.5 1032.5L1479.5 1033.5L1499 1059.5L1500 1063L1501.5 1069.5L1509.5 1081L1510.5 1097.5L1515.5 1110L1524.5 1112.5L1526.5 1122.5L1542 1127.5L1546.5 1123.5L1545 1116L1544 1085L1542 1081V1071.5L1531.5 1050.5V1044L1528 1029L1515.5 1006L1492.5 964Z" fill="#3B82F6" fill-opacity="0.5"/>
</svg>
