<svg width="1920" height="2240" viewBox="0 0 1920 2240" fill="none" xmlns="http://www.w3.org/2000/svg">
<path d="M897 1513L781 1497.5L779.5 1519.5L778.5 1539.5L777 1555.5L774.5 1564.5L767 1591L757.5 1620L750.5 1645L747.5 1669.5V1701L748.5 1742.5L750.5 1771.5L753.5 1800.5L755.5 1844.5L757 1894.5L755.5 1911.5L750 1925.5L815 1930L813.5 1917.5V1908.5L815 1896L819.5 1878L825.5 1853.5L833 1824.5L841.5 1795L847 1779.5L856 1756L862.5 1732.5L867 1711L868.5 1697V1609.5L872.5 1591L876 1582.5L883 1567.5L890 1544L897 1513Z" fill="#3B82F6" fill-opacity="0.5"/>
<path d="M1147 1496L1029 1516L1037 1551.5L1053 1591L1058 1609.5V1666.5V1704L1063.5 1730.5L1082 1787L1097 1840.5L1109 1891.5L1113 1914.5L1109 1939L1176 1935.5L1169.5 1914.5L1166.5 1894.5V1875L1169.5 1838L1179 1716.5V1685L1176.5 1650.5L1170.5 1629L1158 1587L1150 1559.5V1551.5L1147 1519.5V1496Z" fill="#3B82F6" fill-opacity="0.5"/>
</svg>
