<svg xmlns="http://www.w3.org/2000/svg" viewBox="0 0 512 512">
  <defs>
    <linearGradient id="grad1" x1="0%" y1="0%" x2="100%" y2="100%">
      <stop offset="0%" style="stop-color:#0ea5e9;stop-opacity:1" />
      <stop offset="100%" style="stop-color:#2563eb;stop-opacity:1" />
    </linearGradient>
  </defs>
  <rect width="512" height="512" rx="128" fill="url(#grad1)" />
  <path d="M256 112c-26.5 0-48 21.5-48 48s21.5 48 48 48 48-21.5 48-48-21.5-48-48-48zm0 112c-61.9 0-112 50.1-112 112v32c0 17.7 14.3 32 32 32h160c17.7 0 32-14.3 32-32v-32c0-61.9-50.1-112-112-112z" fill="white" transform="translate(0, 20)"/>
  <path d="M160 320c0-17.7 14.3-32 32-32h128c17.7 0 32 14.3 32 32" stroke="white" stroke-width="32" stroke-linecap="round" fill="none" opacity="0.3"/>
</svg>
