<svg width="1920" height="2240" viewBox="0 0 1920 2240" fill="none" xmlns="http://www.w3.org/2000/svg">
<path d="M781.5 583L725.5 526.5L713.5 573.5L709 610L708 658.5L706 671.5L700 690.5L686 739.5L678.5 774.5L673.5 789L652 826L638.5 863.5L630.5 886.5L616 960.5L606.5 1000L594 1036L576.5 1081.5L646.5 1100.5L659 1067.5L683.5 1014.5L712 960.5L735.5 910L751.5 858L752.5 847.5L758 821L762.5 808.5L784.5 745.5L796.5 696L794.5 674.5L800.5 641L781.5 583Z" fill="#3B82F6" fill-opacity="0.5"/>
<path d="M1141.5 581.5L1199 526L1211 581L1215 603.5V658L1217 664.5L1237.5 739L1247 766.5V780L1263 810L1272 826L1291 873.5L1301 918.5L1308.5 956.5L1311 978L1315.5 994L1328 1033.5L1349.5 1086.5L1280.5 1104.5L1249.5 1029L1232.5 998.5L1215.5 965.5L1203.5 941.5L1189.5 910.5L1179 880L1172.5 852L1169.5 832.5L1164.5 816.5L1144.5 761L1133.5 724.5L1130 702.5V699.5V653L1126.5 644V636.5L1141.5 581.5Z" fill="#3B82F6" fill-opacity="0.5"/>
</svg>
