<svg width="1920" height="2240" viewBox="0 0 1920 2240" fill="none" xmlns="http://www.w3.org/2000/svg">
<path d="M929 120.5L960.5 115L999 120.5L1025 137L1043.5 161L1052.5 196.5V244L1055.5 242.5L1061.5 244L1064.5 250V281.5L1057 303.5L1050.5 311L1042 312.5L1040 319L1035 335.5L1027.5 352L1024 387.5L1025.5 402.5L1027.5 411.5L1033 421L1045 433.5L1052.5 437.5L1073 450L1097.5 460.5L960.5 487L829 460.5L844 452.5L866.5 440L880.5 431.5L891 421L896.5 411.5L899.5 402.5V391V376.5V362.5L897.5 352L892.5 344.5L887.5 333L881 312.5H874L869 306L864 296.5L860.5 281.5L859 266.5V257.5L860.5 250L864 244H871V230V207L873.5 187.5L877.5 173L883.5 157.5L894.5 143.5L911 129.5L929 120.5Z" fill="#3B82F6" fill-opacity="0.5"/>
</svg>
