<svg width="1920" height="2240" viewBox="0 0 1920 2240" fill="none" xmlns="http://www.w3.org/2000/svg">
<path d="M899.5 2027C899.5 2026.2 846.5 2024.33 820 2023.5V2032L813 2048.5L803.5 2065L786.5 2079.5L769 2102.5V2109.5L772 2121.5H777L778.5 2124L783 2128.5H789V2121.5L794.5 2131H800L801.5 2125L803.5 2124L807 2131L813 2135.5H820.5L823.5 2131H831L835 2137.5H846.5L863.5 2131L875 2121.5L883 2111L886.5 2092L899.5 2081.5L903 2065V2057L899.5 2044V2027Z" fill="#3B82F6" fill-opacity="0.5"/>
<path d="M1105 2023.5H1023.5L1025.5 2028L1026.5 2035L1025.5 2042.5L1023.5 2051.5L1021 2063.5L1022.5 2079L1026.5 2088L1036.5 2092.5L1037.5 2101.5L1038.5 2110L1045 2122L1068.5 2137H1081.5L1090 2134L1096.5 2123.5L1099 2122L1112.5 2131.5L1116 2128V2132.5H1125.5L1128 2129L1133 2124.5L1134 2116L1142.5 2125.5L1151 2124.5L1152.5 2116L1154.5 2114.5V2103L1151 2097L1146 2090.5L1136 2079L1122 2065L1116 2054.5L1105 2032.5V2023.5Z" fill="#3B82F6" fill-opacity="0.5"/>
</svg>
