<svg width="1920" height="2240" viewBox="0 0 1920 2240" fill="none" xmlns="http://www.w3.org/2000/svg">
<path d="M646.5 1100.5L576 1081.5V1085L570.5 1089L563 1093L554 1099L545 1109L538.5 1112.5L530 1122.5L520.5 1138L504.5 1164.5L493 1180V1186L501.5 1190L512.5 1188L518 1182.5L534 1164.5L541 1154H543L534 1186L512.5 1248L510.5 1261.5L512.5 1273L518 1275L523.5 1273L530 1263L553.5 1205L556 1202H559V1205L541 1281V1290L545 1298.5H553.5L559 1292L567 1268L579.5 1213.5L582.5 1210.5L585.5 1213.5L581.5 1239L577 1277V1287.5L582.5 1292L589.5 1290L595 1281L604.5 1240.5L608.5 1210.5L611.5 1205H613.5V1236.5V1263L618.5 1268L625.5 1263L629 1245.5L633.5 1198.5L635.5 1188L640 1164.5L644.5 1149.5V1128V1112.5L646.5 1100.5Z" fill="#3B82F6" fill-opacity="0.5"/>
<path d="M1370 1101L1350 1086.5L1314.5 1095L1279.5 1105L1280.5 1134L1282 1153L1287 1177.5L1289 1193L1294 1238.5L1295.5 1256L1301 1267L1308.5 1269.5L1312.5 1267V1207.5L1317 1211L1320 1237.5L1324 1259L1329.5 1286L1337 1293.5H1341.5L1348.5 1286V1280L1346 1258L1340 1211L1341.5 1209.5L1343 1211L1350 1238.5L1357.5 1269.5L1361.5 1286L1369 1297.5L1376 1299L1382.5 1296L1384.5 1286L1382.5 1268.5L1369 1214L1367 1201.5L1369 1203L1387.5 1247.5L1397.5 1269.5L1402 1274.5H1409.5L1414.5 1269.5V1256L1395 1199.5L1387.5 1177.5L1382.5 1155C1390 1163.67 1405.2 1181.1 1406 1181.5C1406.8 1181.9 1413 1186 1416 1188H1425.5L1430 1185.5L1428.5 1174L1419 1162.5L1411 1149L1400 1133L1389.5 1116.5L1370 1101Z" fill="#3B82F6" fill-opacity="0.5"/>
</svg>
