<svg width="1920" height="2240" viewBox="0 0 1920 2240" fill="none" xmlns="http://www.w3.org/2000/svg">
<path d="M933.5 1527H797.5L801 1576.5V1609L794 1643.5L787 1705.5V1743L794 1783L810 1873L821.5 1929.5L823.5 1984L819 2003L822 2023.5L900 2026.5L902.5 1989.5L900 1981L897.5 1966.5V1944L900 1917L904.5 1869L908.5 1831L916.5 1797L924 1751.5V1740.5V1705.5L919.5 1668L917 1643.5V1625L921 1601.5L926.5 1570L931.5 1544.5L933.5 1527Z" fill="#3B82F6" fill-opacity="0.5"/>
<path d="M1126.5 1527H993L996 1555.5L1000.5 1576.5L1010.5 1627.5L1000.5 1710V1747.5L1005 1776.5L1018 1846.5L1028 1949.5V1964L1022 1989.5L1021 2002.5L1023 2023.5H1104L1105.5 2012.5V2002.5L1099.5 1987V1967L1102.5 1937L1107.5 1903.5L1114.5 1860L1127.5 1801L1133.5 1768L1137.5 1735.5V1705.5L1135.5 1672L1128 1627.5L1124.5 1599.5V1573L1126.5 1527Z" fill="#3B82F6" fill-opacity="0.5"/>
</svg>
