<svg width="1920" height="2240" viewBox="0 0 1920 2240" fill="none" xmlns="http://www.w3.org/2000/svg">
<path d="M837 1030.5L773 1014L765.5 1062L756 1100.5L744.5 1184V1237.5L747.5 1266.5L782 1445L797 1512L798.5 1527H933.5V1507V1454.5V1421L936.5 1410.5V1388L946 1329L950 1294.5L953.5 1266.5V1236V1223.5L950 1193.5L837 1030.5Z" fill="#3B82F6" fill-opacity="0.5"/>
<path d="M1086.5 1032.5L1152 1014L1159.5 1061.5L1166 1080L1169.5 1098.5L1179.5 1162V1205.5V1236L1177 1264L1172.5 1294.5L1158 1361.5V1377L1138.5 1460L1127.5 1509.5L1126.5 1527H993.5V1504.5L988.5 1399L986 1379L979.5 1336L975 1302.5L970.5 1253.5V1227L972.5 1208.5V1193.5L1086.5 1032.5Z" fill="#3B82F6" fill-opacity="0.5"/>
</svg>
