<svg width="1920" height="2240" viewBox="0 0 1920 2240" fill="none" xmlns="http://www.w3.org/2000/svg">
<path d="M601.5 743.5L668.5 645L676.5 626.5L765.5 685.5L741.5 737.5L708.5 774L666 809.5L658 822.5L633 856L581 899.5L536 927.5L487 968L478 979.5L429.5 952.5L549 784L601.5 743.5Z" fill="#3B82F6" fill-opacity="0.5"/>
<path d="M1255 658.5L1246.5 637.5L1158.5 692L1185.5 748.5L1235 794.5L1255 818.5L1281.5 852.5L1327.5 892.5L1392.5 934L1405 947.5L1439 978L1477 944.5L1435 884L1407 839.5L1367 781.5L1320.5 748.5L1255 658.5Z" fill="#3B82F6" fill-opacity="0.5"/>
</svg>
