<svg width="1920" height="2240" viewBox="0 0 1920 2240" fill="none" xmlns="http://www.w3.org/2000/svg">
<path d="M958 562.5L839.5 505.5L866.5 495.5L888.5 483.5L900.5 470L902.5 454L900.5 415L895 403L888.5 381.5H883.5L879.5 374.5L874 367.5L871 352L868.5 336V326.5L871 321.5L876 318L881.5 323.5L879.5 303V282.5L881.5 269L885.5 252.5L891.5 239.5L900.5 228.5L912 216L929 206L943.5 201H973L993.5 208L1009.5 218.5L1021 231L1032 250L1037.5 275V323.5L1041.5 319.5H1046L1050.5 326.5V341L1048 357.5L1041.5 374.5L1032 385.5L1026 381.5V391.5L1023 403L1016.5 418.5V454L1019 466L1026 476L1037.5 486L1062 499L1081 507.5L958 562.5Z" fill="#3B82F6" fill-opacity="0.5"/>
</svg>
