<svg width="1920" height="2240" viewBox="0 0 1920 2240" fill="none" xmlns="http://www.w3.org/2000/svg">
<path d="M1188 1935H1123L1128.5 1951L1127 1958.5V1976L1128.5 1989L1146 2000L1145 2014L1147 2019.5L1155.5 2031L1165 2037.5L1175.5 2048L1191 2047L1196 2044H1211L1222 2041.5L1230.5 2038.5L1238 2033L1243 2026.5V2014L1240 2006L1235.5 2001.5L1214.5 1981L1206.5 1971.5L1188 1940V1935Z" fill="#3B82F6" fill-opacity="0.5"/>
<path d="M824 1935H760.5L759.5 1942L754 1950L744 1965.5L731 1986.5L709 2005L702 2014.5L699 2029L706.5 2033L714 2038L724 2039.5L729.5 2043H739L742.5 2038L744 2043L751 2047H763L771.5 2045.5L777.5 2039.5L789 2033L796.5 2020L800 2005L812.5 1996.5L824 1984.5V1963L822.5 1958L822 1947L824 1935Z" fill="#3B82F6" fill-opacity="0.5"/>
</svg>
