<svg width="1920" height="2240" viewBox="0 0 1920 2240" fill="none" xmlns="http://www.w3.org/2000/svg">
<path d="M381.5 1034L429.5 953.5L478 979.5L474.5 985L472.5 1001.5L469.5 1013L459.5 1032.5L458.5 1044L456 1054L452 1062.5L448 1065.5H441L435 1062.5L432 1055L433.5 1039.5L426.5 1046L420.5 1054L413.5 1058.5L407 1070L400 1086L397.5 1102L387.5 1108.5L381.5 1122.5L372 1130.5L362 1133.5L359.5 1126.5V1108.5L362 1096L367 1075.5L372 1065.5L381.5 1034Z" fill="#3B82F6" fill-opacity="0.5" stroke="#3B82F6"/>
<path d="M1442.5 984.5L1438.5 979.5L1478 944.5L1535.5 1036V1042.5L1541 1056L1555.5 1095.5L1557.5 1131L1554 1132.5L1546.5 1131L1538 1125.5L1530 1109L1526.5 1107.5L1519 1098.5L1518 1088.5L1511.5 1075.5L1509 1067.5L1483.5 1038.5V1059.5L1478 1065.5H1470.5L1465.5 1062L1460.5 1053L1455.5 1031L1447.5 1017L1442.5 999V984.5Z" fill="#3B82F6" fill-opacity="0.5" stroke="#3B82F6"/>
</svg>
