<svg width="1920" height="2240" viewBox="0 0 1920 2240" fill="none" xmlns="http://www.w3.org/2000/svg">
<path d="M1150.88 1529.67V1465L1085.18 1467.55L1027 1470.6L1038.54 1528.14L1045.06 1551.06L1064.11 1595.36L1067.12 1677.34L1070.63 1717.06L1092.2 1774.6L1120.79 1886.63V1900.37V1918L1123 1935H1159.91H1188L1184.5 1906.5L1174.46 1876.44L1176.96 1789.37L1183.48 1718.08V1647.3L1179.97 1627.44L1159.91 1570.41L1150.88 1529.67Z" fill="#3B82F6" fill-opacity="0.5"/>
<path d="M905.5 1470L783 1464.5L786.5 1532.14L781.5 1562.21L775 1580.75L759 1630.35V1643.38L757 1698L762 1743.59L769 1815.25L771 1869.36L769 1891.41L760.5 1918.46V1935H824L827.5 1925.98L826 1896.42L827.5 1875.87L834.5 1838.29L844 1801.72L852.5 1770.15L869.5 1721.55L874.5 1698L876 1675.45V1655.41L874.5 1591.27L878.5 1580.75L889 1557.7L899 1521.62L905.5 1470Z" fill="#3B82F6" fill-opacity="0.6"/>
</svg>
