<svg width="1920" height="2240" viewBox="0 0 1920 2240" fill="none" xmlns="http://www.w3.org/2000/svg">
<path d="M788.5 629.5L715.5 556L708.5 616.5V661.5L704 682L669.5 801L646.5 839L631.5 880.5L624.5 920.5L613 980.5L598 1034L576 1084.5L646.5 1108L655.5 1079.5L686 1014L703.5 980.5L726.5 933.5L746.5 883.5L750.5 867.5L756 842.5L759 826.5L767.5 801L787 744.5L796.5 702L798 699.5L788.5 629.5Z" fill="#3B82F6" fill-opacity="0.5"/>
<path d="M1139.5 629L1209.5 556L1217 604L1219.5 641.5V665L1222.5 675L1254 789.5L1266.5 816.5L1285 849.5L1299.5 900L1310.5 958.5L1321 1004.5L1350.5 1085L1282 1107L1274 1085L1253.5 1036.5L1214 958.5L1181.5 888.5L1176 861L1171 837L1158 797L1135.5 728L1128.5 699.5L1132.5 653.5L1134 648L1139.5 629Z" fill="#3B82F6" fill-opacity="0.5"/>
</svg>
