<svg width="1920" height="2240" viewBox="0 0 1920 2240" fill="none" xmlns="http://www.w3.org/2000/svg">
<path d="M929.5 119.5L963.5 114L977 115.5L995 118L1010.5 124L1035 143.5L1047.5 169L1053.5 202.5L1056.5 225.5C1055.83 230.667 1054.5 241.7 1054.5 244.5C1054.5 247.3 1060.17 245.667 1063 244.5L1067.5 257.5V269L1063 286.5L1056.5 306.5L1049 315.5L1045 316.5L1038.5 337L1032 354.5L1026 368V391L1029.5 403L1034 418.5L1000.5 422.5H963H934.5L893.5 418.5L896.5 415L899.5 403V362L896.5 358L891.5 348.5L887 337L882.5 316.5L879.5 315.5L874.5 312.5L867.5 302L860 272.5V249.5L863.5 244.5H873.5L871 241.5V218L873.5 190L881 162.5L890 148.5L908 131L929.5 119.5Z" fill="#3B82F6" fill-opacity="0.5"/>
</svg>
