<svg width="1920" height="2240" viewBox="0 0 1920 2240" fill="none" xmlns="http://www.w3.org/2000/svg">
<path d="M933.5 1539.5C889.167 1535 800.1 1526 798.5 1526L802.5 1587V1613.5L790.5 1672.5L786.5 1755.5L798 1813.5L825 1964.5L824.5 2003L822.5 2012.5L821 2023H905V2012.5L901.5 1992L897 1964L899 1949L905 1895.5L911 1843.5L913 1839L917.5 1813.5L926 1766V1752.5V1737.5L921.5 1681L917.5 1639.5L919 1631.5L925.5 1596L933.5 1539.5Z" fill="#3B82F6" fill-opacity="0.5"/>
<path d="M1128.5 1539L993 1526L994 1549.5L997.5 1564L1001 1584V1589L1007.5 1626L1010.5 1643.5L1004 1704.5L1001 1768.5V1774L1007.5 1799L1015 1830.5L1030 1960L1027.5 1992L1022.5 2008V2015V2023H1105V2015L1102 2008V1972L1108 1936.5L1125.5 1843.5L1133 1805.5L1139.5 1768.5V1733.5V1694L1133 1651L1126.5 1611.5V1596.5L1128.5 1539Z" fill="#3B82F6" fill-opacity="0.5"/>
</svg>
