<svg width="1920" height="2240" viewBox="0 0 1920 2240" fill="none" xmlns="http://www.w3.org/2000/svg">
<path d="M903 2045L904.5 2023H861.5H820.5V2039L801.5 2049L796 2050.5L793 2053L785 2054.5L782 2057.5L777 2068.5L780.5 2073.5V2082L782 2087L790 2091L807 2099.5L816.5 2104L820.5 2112L830 2122.5L843 2128L860.5 2130H878.5L891.5 2122.5L895.5 2112L899.5 2082L903 2045Z" fill="#3B82F6" fill-opacity="0.5"/>
<path d="M1105 2022.5C1077.5 2022.67 1023.3 2022.9 1022.5 2022.5L1025.5 2048.5V2059L1022.5 2066.5L1024 2072.5L1028.5 2077V2104L1034.5 2122.5L1056.5 2130H1076.5L1091.5 2125L1108.5 2112L1120 2104L1139 2085.5L1144.5 2074L1148 2070.5L1150 2067L1148 2063V2059L1144.5 2055.5L1140.5 2053.5L1127 2050L1125 2046.5L1123 2043.5H1120L1105 2037.5V2022.5Z" fill="#3B82F6" fill-opacity="0.5"/>
</svg>
