<svg width="1920" height="2240" viewBox="0 0 1920 2240" fill="none" xmlns="http://www.w3.org/2000/svg">
<path d="M803.498 465.546L788.498 628.546L788.399 629.612L787.646 628.853L715.646 556.353L715.427 556.133L715.526 555.84L726.026 524.84L726.041 524.797L726.062 524.757L743.562 493.257L743.617 493.16L743.706 493.096L769.206 474.596L769.278 474.543L769.363 474.519L802.863 465.019L803.564 464.82L803.498 465.546ZM1122.64 465.02L1155.64 474.52L1155.69 474.534L1155.74 474.561L1178.74 487.061L1178.84 487.117L1178.91 487.215L1195.91 511.715L1195.95 511.771L1195.97 511.835L1202.97 531.835L1202.98 531.852L1202.98 531.869L1209.48 555.869L1209.56 556.144L1209.36 556.348L1139.86 628.348L1139.11 629.119L1139 628.052L1122 465.552L1121.93 464.814L1122.64 465.02Z" fill="#3B82F6" fill-opacity="0.5"/>
</svg>
