<svg width="1920" height="2240" viewBox="0 0 1920 2240" fill="none" xmlns="http://www.w3.org/2000/svg">
<path d="M647 1108C623.5 1100.33 576.3 1084.9 575.5 1084.5L531.5 1119.5L528.5 1130.5L494.5 1179.5L496.5 1184.5L503 1188H511L542.5 1156V1164L511 1254.5V1268L515.5 1274L522 1276.5L528.5 1271.5L551.5 1211.5L555.5 1207H558L547.5 1258L542.5 1283V1293L549.5 1301.5L555.5 1299L561.5 1293L580.5 1216.5L583.5 1214.5L587 1217.5L578.5 1280.5V1288L587 1293L595.5 1288L602.5 1259L610 1214.5L613.5 1210L616 1214.5L613.5 1223.5V1262.5L616 1268H623.5L630 1259L635.5 1196.5L640 1178L645.5 1147L647 1108Z" fill="#3B82F6" fill-opacity="0.5"/>
<path d="M1351 1085L1280.5 1107.5L1283.5 1147.5L1293 1197L1297 1258L1303.5 1269H1310.5L1312.5 1264V1213L1315.5 1209.5L1319 1213L1329.5 1279.5L1333 1287L1343 1293L1348 1289.5L1351 1279.5L1343 1219V1213L1348 1219L1364.5 1289.5L1368.5 1297.5L1376 1301L1383 1297.5L1386.5 1289.5V1279.5L1371.5 1209.5V1205L1376 1209.5L1396 1264L1401.5 1273L1407.5 1275H1413L1418 1270.5V1264L1386.5 1161.5V1157L1391.5 1161.5L1396 1167.5L1399.5 1176.5L1407.5 1181.5L1418 1189.5H1426.5L1433 1184.5V1179L1418 1153.5L1403.5 1135L1399.5 1126.5L1386.5 1111L1351 1085Z" fill="#3B82F6" fill-opacity="0.5"/>
</svg>
